<svg _ngcontent-serverApp-c32="" fill="#ffffff" height="24" viewBox="0 0 28 24" width="28" xmlns="http://www.w3.org/2000/svg"><path _ngcontent-serverApp-c32="" d="M20.142 21.8692H1.16639C0.683971 21.8692 0.291504 21.5596 0.291504 21.1792V20.2603C0.291504 19.8803 0.683971 19.5711 1.16639 19.5711H20.142C20.625 19.5711 21.0179 19.8803 21.0179 20.2603V21.1792C21.0179 21.5596 20.625 21.8692 20.142 21.8692ZM13.9995 12.6785H1.16639C0.683971 12.6785 0.291504 12.3693 0.291504 11.9893V11.0704C0.291504 10.6904 0.683971 10.3813 1.16639 10.3813H13.9995C14.4819 10.3813 14.8744 10.6904 14.8744 11.0704V11.9893C14.8744 12.3693 14.4819 12.6785 13.9995 12.6785ZM26.8336 3.48862H1.16639C0.683971 3.48862 0.291504 3.17947 0.291504 2.79946V1.88056C0.291504 1.50056 0.683971 1.19141 1.16639 1.19141H26.8336C27.3161 1.19141 27.7085 1.50056 27.7085 1.88056V2.79946C27.7085 3.17947 27.3161 3.48862 26.8336 3.48862Z" fill="white"></path><path _ngcontent-serverApp-c32="" d="M20.1421 21.6387C20.4643 21.6387 20.7264 21.4322 20.7264 21.1785V20.2596C20.7264 20.0062 20.4643 19.8002 20.1421 19.8002H1.16655C0.844958 19.8002 0.583333 20.0062 0.583333 20.2596V21.1785C0.583333 21.4322 0.844958 21.6387 1.16655 21.6387H20.1421ZM13.9996 12.448C14.3212 12.448 14.5829 12.2419 14.5829 11.9886V11.0697C14.5829 10.8164 14.3212 10.6103 13.9996 10.6103H1.16655C0.844958 10.6103 0.583333 10.8164 0.583333 11.0697V11.9886C0.583333 12.2419 0.844958 12.448 1.16655 12.448H13.9996ZM26.8338 3.25815C27.1554 3.25815 27.417 3.05206 27.417 2.79874V1.87984C27.417 1.62652 27.1554 1.42044 26.8338 1.42044H1.16655C0.844958 1.42044 0.583333 1.62652 0.583333 1.87984V2.79874C0.583333 3.05206 0.844958 3.25815 1.16655 3.25815H26.8338ZM20.1421 22.0982H1.16655C0.52185 22.0982 0 21.6863 0 21.1785V20.2596C0 19.7525 0.52185 19.3407 1.16655 19.3407H20.1421C20.7868 19.3407 21.3097 19.7525 21.3097 20.2596V21.1785C21.3097 21.6863 20.7868 22.0982 20.1421 22.0982ZM13.9996 12.9075H1.16655C0.52185 12.9075 0 12.4964 0 11.9886V11.0697C0 10.5627 0.52185 10.1508 1.16655 10.1508H13.9996C14.6443 10.1508 15.1662 10.5627 15.1662 11.0697V11.9886C15.1662 12.4964 14.6443 12.9075 13.9996 12.9075ZM26.8338 3.71765H1.16655C0.52185 3.71765 0 3.30658 0 2.79874V1.87984C0 1.372 0.52185 0.960938 1.16655 0.960938H26.8338C27.4775 0.960938 28.0004 1.372 28.0004 1.87984V2.79874C28.0004 3.30658 27.4775 3.71765 26.8338 3.71765Z" fill="white"></path></svg>