<svg xmlns="http://www.w3.org/2000/svg" width="859" height="76" viewBox="0 0 859 76" fill="none">
<path d="M136.01 23.05V32.92H158.22V41.56H136.01V65.01H169.33V73.65H126.14V14.42H169.33V23.06H136.01V23.05Z" fill="white"/>
<path d="M704.34 22.67V32.54H726.55V41.18H704.34V64.63H737.66V73.27H694.47V14.03H737.66V22.67H704.34Z" fill="white"/>
<path d="M532.92 22.67V32.54H555.13V41.18H532.92V64.63H566.24V73.27H523.05V14.03H566.24V22.67H532.92Z" fill="white"/>
<path d="M650.14 22.67V32.54H672.35V41.18H650.14V64.63H650.19V73.27H640.27V14.03H683.46V22.67H650.14Z" fill="white"/>
<path d="M404.56 14.03V22.67H383.58V73.27H373.71V22.67H345.99V14.03H404.56Z" fill="white"/>
<path d="M798.84 73.27V64.63H827.56V14.03H837.43V64.63H858.41V73.27H798.84Z" fill="white"/>
<path d="M53.18 29.14C52.03 22.04 46.95 18.28 42.49 16.33C39.3 14.94 35.83 14.3 32.34 14.29L9.87 14.2H0V73.43H9.87V22.79L10.87 22.84C10.87 22.84 32.31 22.69 34.79 22.99C37.11 23.27 40.56 24.52 42.7 27.25C45.72 31.09 45.63 35.56 45.1 38.59C44.65 41.19 43.63 44.53 39.2 46.63C35.57 48.35 30.12 47.77 25.83 44.53C22.12 41.73 21.98 35.18 21.98 35.18H12.11C12 38.18 13.06 44.76 18.06 49.81C23.06 54.87 32.85 58.17 41.59 54.35C50.33 50.53 55.32 42.4 53.18 29.14Z" fill="white"/>
<path d="M511.54 28.98C510.39 21.88 505.31 18.12 500.85 16.17C497.66 14.78 494.19 14.14 490.7 14.13L468.23 14.04H458.36V73.27H468.23V22.62L469.23 22.67C469.23 22.67 490.67 22.52 493.15 22.82C495.47 23.1 498.92 24.35 501.06 27.08C504.08 30.92 503.99 35.39 503.46 38.42C503.01 41.02 501.99 44.36 497.56 46.46C493.93 48.18 488.48 47.6 484.19 44.36C480.48 41.56 480.34 35.01 480.34 35.01H470.47C470.36 38.01 471.42 44.59 476.42 49.64C481.42 54.7 491.21 58 499.95 54.18C508.69 50.36 513.68 42.23 511.54 28.97V28.98Z" fill="white"/>
<path d="M116.86 35.16C116.86 23.58 107.47 14.2 95.9 14.2H64.69V73.43H74.56V56.12H94.82L94.64 56.15C94.64 56.15 95.71 63.48 101.58 68.32C107.44 73.16 110.44 73.15 115.29 73.43V64.79C115.29 64.79 109.91 64.47 107.44 61.39C104.98 58.31 104.37 54.73 104.37 54.73L104.25 54.39H104.22C111.66 51.18 116.87 43.78 116.87 35.16H116.86ZM95.9 47.18H74.56V23.15H95.9C102.53 23.15 107.92 28.54 107.92 35.17C107.92 41.8 102.53 47.19 95.9 47.19V47.18Z" fill="white"/>
<path d="M629.34 34.99C629.34 23.41 619.95 14.03 608.38 14.03H577.17V73.26H587.04V55.95H607.3L607.12 55.98C607.12 55.98 608.19 63.31 614.06 68.15C619.92 72.99 622.92 72.98 627.77 73.26V64.62C627.77 64.62 622.39 64.3 619.92 61.22C617.46 58.14 616.85 54.56 616.85 54.56L616.73 54.22H616.7C624.14 51.01 629.35 43.61 629.35 34.99H629.34ZM608.38 47.01H587.04V22.98H608.38C615.01 22.98 620.4 28.37 620.4 35C620.4 41.63 615.01 47.02 608.38 47.02V47.01Z" fill="white"/>
<path d="M289.05 23.05V14.42H255.65H245.86V23.05V47.73V56.27V65.11V73.65H255.65H289.05V65.11H255.65V56.27H277.94V47.73H255.65V23.05H289.05Z" fill="white"/>
<path d="M194.01 61.67C197.65 62.98 208.92 64.88 212.05 65.48C215.61 66.16 219.83 67.19 222.83 68.76C225.53 70.16 226.45 72.01 225.71 74.61H234.1C234.61 71.82 234.13 69.1 232.53 66.46C230.29 62.79 225.25 60.87 222.51 59.73C219.77 58.58 212.84 57.03 212.84 57.03C212.84 57.03 199.2 54.59 197.58 54.22C195.96 53.85 192.14 52.77 189.78 50.95C187.42 49.13 187.52 46.55 187.52 46.55C187.52 46.55 187.06 43.45 190.59 40.77C194.11 38.09 198.45 36.19 205.39 36.07C212.33 35.96 215.01 37.16 217.53 38.13C220.05 39.1 221.88 40.64 223.21 42.64C224.49 44.56 224.51 47.17 224.51 47.17H233.18C233.18 47.17 233.51 45.43 232.36 42.63C231.13 39.65 230.23 38.06 226.99 35.4C223.89 32.85 219.66 30.84 214.59 29.6C209.73 28.41 204.31 28.52 200.53 29.04C196.94 29.54 190.94 31.04 185.99 34.69C185.72 34.89 185.45 35.1 185.2 35.3C182.06 37.86 180.29 40.01 179.17 43.96C179.17 43.96 177.92 49.65 181.67 54.63C185.11 59.2 190.38 60.37 194.02 61.68L194.01 61.67Z" fill="white"/>
<path d="M234.56 75.15H224.97L225.17 74.44C225.83 72.12 225.02 70.52 222.57 69.24C220.16 67.99 216.59 66.9 211.94 66.02C211.38 65.91 210.56 65.77 209.58 65.59C204.82 64.73 196.86 63.29 193.82 62.19C193.29 62 192.72 61.81 192.14 61.61C188.63 60.44 184.26 58.98 181.22 54.94C177.36 49.81 178.57 44.06 178.62 43.82C179.83 39.56 181.81 37.31 184.84 34.85C185.1 34.64 185.37 34.43 185.65 34.22C191.24 30.1 197.86 28.83 200.44 28.47C205.21 27.81 210.55 28.02 214.71 29.04C219.76 30.27 224.13 32.32 227.33 34.95C230.69 37.71 231.64 39.42 232.87 42.4C234.07 45.32 233.74 47.18 233.73 47.26L233.64 47.72H223.95V47.17C223.95 47.17 223.91 44.7 222.74 42.95C221.4 40.95 219.63 39.54 217.32 38.65L216.91 38.49C214.54 37.57 211.85 36.53 205.4 36.63C199.43 36.73 194.96 38.14 190.93 41.21C187.74 43.64 188.06 46.36 188.08 46.47C188.08 46.66 188.04 48.9 190.13 50.51C192.63 52.43 196.89 53.48 197.72 53.67C199.31 54.04 212.82 56.45 212.95 56.47C213.26 56.54 219.98 58.05 222.74 59.2L223.26 59.42C226.09 60.59 230.82 62.56 233.02 66.16C234.66 68.85 235.21 71.72 234.66 74.7L234.58 75.16L234.56 75.15ZM226.41 74.03H233.62C233.98 71.5 233.45 69.04 232.05 66.73C230.04 63.44 225.52 61.56 222.82 60.44L222.29 60.22C219.62 59.1 212.79 57.57 212.72 57.55C212.19 57.46 199.07 55.11 197.46 54.74C196.24 54.46 192.05 53.38 189.44 51.37C186.88 49.4 186.96 46.62 186.96 46.5C186.94 46.46 186.5 43.14 190.25 40.29C194.49 37.07 199.15 35.58 205.38 35.48C212.07 35.38 214.85 36.46 217.32 37.42L217.73 37.58C220.26 38.56 222.21 40.1 223.67 42.3C224.68 43.81 224.95 45.67 225.03 46.58H232.66C232.66 45.92 232.57 44.59 231.84 42.81C230.66 39.94 229.81 38.41 226.63 35.8C223.55 33.27 219.34 31.31 214.45 30.11C210.42 29.13 205.24 28.92 200.6 29.56C198.1 29.91 191.7 31.14 186.32 35.1C186.05 35.3 185.8 35.5 185.55 35.7C182.63 38.07 180.83 40.11 179.71 44.08C179.71 44.1 178.58 49.55 182.12 54.26C184.95 58.02 189.14 59.42 192.5 60.54C193.1 60.74 193.67 60.93 194.21 61.13C197.16 62.19 205.37 63.68 209.79 64.48C210.78 64.66 211.6 64.81 212.16 64.92C216.91 65.83 220.59 66.95 223.09 68.25C225.77 69.65 226.87 71.54 226.42 74.03H226.41Z" fill="white"/>
<path d="M345.72 28.65V60.54L309.93 14.03H300.06V73.27H309.93V28.12L345.72 73.27H355.59V28.65H345.72Z" fill="white"/>
<path d="M767.76 73.27C762.17 69.2 758.59 62.97 758.59 55.99C758.59 43.72 769.64 33.78 783.27 33.78C789.15 33.78 794.54 35.63 798.78 38.72H811.9C805.69 30.53 795.18 25.15 783.27 25.15C764.19 25.15 748.72 38.96 748.72 56C748.72 62.4 750.9 68.35 754.64 73.28H767.76V73.27Z" fill="white"/>
<path d="M786.73 5.39C780.57 5.39 774.95 3.36 770.63 0H757.78C763.95 8.44 774.61 14.03 786.74 14.03C798.87 14.03 809.16 8.65 815.37 0.45H802.25C798.01 3.54 792.62 5.39 786.74 5.39H786.73Z" fill="white"/>
<path d="M206.79 5.39C200.63 5.39 195.01 3.36 190.69 0H177.84C184.01 8.44 194.67 14.03 206.8 14.03C218.93 14.03 229.22 8.65 235.43 0.45H222.31C218.07 3.54 212.68 5.39 206.8 5.39H206.79Z" fill="white"/>
</svg>