<svg xmlns="http://www.w3.org/2000/svg" width="24" height="24" viewBox="0 0 24 24" fill="none">
<path fill-rule="evenodd" clip-rule="evenodd" d="M0.480261 11.6237C0.480261 11.6237 -0.166653 11.365 0.0411427 10.7783C0.0840569 10.6571 0.17045 10.5542 0.429253 10.3767C1.63029 9.55258 22.659 2.11086 22.659 2.11086C22.659 2.11086 23.2528 1.91405 23.6035 2.04489C23.7639 2.10474 23.8663 2.17238 23.9526 2.41941C23.9839 2.50929 24.0018 2.70035 23.9997 2.89048C23.998 3.02743 23.9807 3.15456 23.9683 3.35377C23.8401 5.38835 20.0081 20.5729 20.0081 20.5729C20.0081 20.5729 19.7789 21.4615 18.9573 21.4919C18.6576 21.5028 18.294 21.443 17.8594 21.075C16.2471 19.7094 10.6745 16.0221 9.44331 15.2112C9.37404 15.1656 9.35409 15.1061 9.34224 15.0481C9.32492 14.9627 9.41922 14.8567 9.41922 14.8567C9.41922 14.8567 19.1225 6.3646 19.3808 5.4736C19.4007 5.40447 19.3256 5.37038 19.224 5.40021C18.5793 5.63352 7.40733 12.5793 6.17449 13.3465C6.10221 13.3914 5.90006 13.3625 5.90006 13.3625L0.480261 11.6237Z" fill="white"/>
</svg>