<svg _ngcontent-serverApp-c50="" viewBox="0 0 16 16" fill="none" xmlns="http://www.w3.org/2000/svg" class=""><path _ngcontent-serverApp-c50="" d="M0.997672 9C0.733073 9 0.479311 8.89464 0.292211 8.70711C0.105112 8.51957 0 8.26522 0 8V7C0 6.73478 0.105112 6.48043 0.292211 6.29289C0.479311 6.10536 0.733073 6 0.997672 6H14.0023C14.2669 6 14.5207 6.10536 14.7078 6.29289C14.8949 6.48043 15 6.73478 15 7V8C15 8.26522 14.8949 8.51957 14.7078 8.70711C14.5207 8.89464 14.2669 9 14.0023 9H0.997672Z" fill="#D2D2D2"></path><path _ngcontent-serverApp-c50="" d="M6 0.997672C6 0.733073 6.10536 0.479311 6.29289 0.292211C6.48043 0.105111 6.73478 -9.90158e-08 7 -8.74228e-08L8 -4.37114e-08C8.26522 -3.21184e-08 8.51957 0.105112 8.70711 0.292211C8.89464 0.479311 9 0.733073 9 0.997672L9 14.0023C9 14.2669 8.89464 14.5207 8.70711 14.7078C8.51957 14.8949 8.26522 15 8 15L7 15C6.73478 15 6.48043 14.8949 6.29289 14.7078C6.10536 14.5207 6 14.2669 6 14.0023L6 0.997672Z" fill="#D2D2D2"></path></svg>